<?xml version="1.0" standalone="no"?>
<!DOCTYPE svg PUBLIC "-//W3C//DTD SVG 20010904//EN"
 "http://www.w3.org/TR/2001/REC-SVG-20010904/DTD/svg10.dtd">
<svg version="1.0" xmlns="http://www.w3.org/2000/svg"
 width="640.000000pt" height="640.000000pt" viewBox="0 0 640.000000 640.000000"
 preserveAspectRatio="xMidYMid meet">

<g transform="translate(0.000000,640.000000) scale(0.100000,-0.100000)"
fill="#000000" stroke="none">
<path d="M2540 4730 c-360 -142 -782 -309 -937 -371 l-283 -111 -1 -937 c0
-515 -3 -1087 -5 -1271 -3 -184 -2 -349 1 -367 5 -30 12 -34 133 -81 126 -50
499 -197 1326 -524 l430 -169 943 372 943 372 0 1301 0 1301 -133 52 c-298
118 -1212 478 -1618 639 -75 30 -138 54 -140 53 -2 0 -299 -117 -659 -259z
m1415 -255 c-8 -22 -14 -50 -15 -63 0 -32 52 -82 85 -82 15 0 24 -4 20 -10 -8
-13 -76 -13 -109 0 -55 20 -57 89 -4 161 16 22 31 39 33 37 2 -2 -2 -22 -10
-43z m-90 -85 c0 -20 -6 -26 -28 -28 -29 -4 -44 16 -33 44 4 10 15 14 33 12
22 -2 28 -8 28 -28z m-739 -61 c128 -39 235 -133 299 -264 34 -67 64 -179 52
-191 -3 -3 -34 10 -69 29 -69 38 -213 87 -257 87 -22 0 -31 8 -48 43 -63 129
-212 217 -366 217 -23 0 -81 -8 -129 -18 -48 -10 -84 -14 -81 -9 9 15 161 83
223 101 134 39 261 40 376 5z m-211 -154 c70 -36 81 -55 32 -55 -65 0 -225
-48 -314 -94 -195 -101 -314 -248 -357 -443 -17 -77 -21 -230 -7 -301 8 -41 8
-42 -9 -27 -34 31 -100 178 -117 260 -28 137 2 278 88 421 116 190 282 277
520 271 95 -2 112 -5 164 -32z m840 -90 c56 -74 118 -192 139 -264 30 -102 17
-241 -33 -343 -36 -74 -78 -115 -209 -201 -146 -97 -220 -160 -282 -246 -24
-33 -46 -59 -48 -56 -9 9 22 119 49 173 27 56 51 85 235 292 141 160 184 298
151 490 -9 55 -28 127 -41 160 -14 34 -21 60 -16 58 5 -2 30 -30 55 -63z m375
-127 c64 -71 85 -223 43 -303 -27 -52 -71 -93 -111 -104 -18 -6 -32 -7 -32 -3
0 4 12 43 27 87 22 66 27 104 31 218 2 75 6 137 8 137 2 0 18 -15 34 -32z
m-908 -17 c80 -21 173 -63 248 -114 84 -56 230 -178 230 -191 0 -17 -68 -120
-112 -170 l-34 -39 -57 42 c-79 58 -246 137 -341 161 -139 35 -251 24 -375
-37 -137 -68 -237 -192 -276 -340 -19 -73 -19 -222 0 -293 8 -30 13 -56 10
-58 -11 -11 -78 115 -106 198 -78 234 -37 463 109 622 175 189 467 279 704
219z m966 -383 c-19 -110 -86 -216 -161 -255 -42 -21 -144 -28 -206 -13 -28 6
-51 14 -51 17 0 2 20 25 44 49 25 24 57 71 73 104 l28 60 66 -6 c79 -7 141 15
180 64 13 17 27 31 30 31 4 1 2 -23 -3 -51z m-872 -22 c64 -31 94 -50 94 -62
0 -9 -29 -74 -64 -144 -72 -143 -90 -195 -111 -325 -17 -103 -20 -327 -5 -405
6 -29 8 -55 6 -57 -2 -2 -20 21 -41 52 -123 186 -147 464 -71 818 20 92 36
170 36 173 0 14 68 -8 156 -50z m-630 -293 c0 -157 34 -255 111 -327 35 -33
15 -34 -52 -2 -86 40 -145 124 -145 207 0 35 28 125 56 182 14 26 26 47 27 47
2 0 3 -48 3 -107z m354 -548 l0 -25 -735 0 -735 0 0 25 0 25 735 0 735 0 0
-25z m1780 0 l0 -25 -735 0 -735 0 0 25 0 25 735 0 735 0 0 -25z m-1086 -229
c42 -25 92 -98 80 -118 -8 -12 -104 -10 -104 2 0 6 -11 22 -25 35 -18 18 -35
25 -65 25 -74 0 -97 -49 -88 -188 6 -89 24 -112 90 -112 46 0 88 35 88 75 0
23 -3 25 -45 25 l-45 0 0 40 0 40 100 0 100 0 0 -52 c0 -76 -18 -128 -55 -163
-63 -60 -162 -71 -245 -27 -81 42 -92 69 -88 224 l3 128 36 35 c69 70 176 82
263 31z m316 -141 c0 -149 2 -164 21 -189 27 -34 98 -37 129 -6 18 18 20 33
20 188 0 93 2 171 4 173 2 2 27 2 56 0 l51 -3 -3 -178 c-3 -163 -5 -181 -24
-207 -81 -110 -257 -110 -338 0 -19 26 -21 44 -24 204 -2 111 0 178 6 182 6 3
31 5 56 3 l46 -4 0 -163z m768 128 l3 -43 -120 0 -121 0 0 -55 0 -55 100 0
100 0 0 -40 0 -40 -100 0 -100 0 0 -55 0 -55 121 0 120 0 -3 -42 -3 -43 -170
0 -170 0 -3 225 c-1 123 -1 229 2 235 3 8 59 11 172 11 l169 -1 3 -42z m-3138
-153 l0 -190 115 0 115 0 0 -45 0 -45 -167 2 -168 3 -3 233 -2 232 55 0 55 0
0 -190z m656 -40 c51 -124 89 -229 84 -233 -4 -5 -27 -7 -51 -5 -41 3 -45 6
-63 46 l-19 42 -87 0 -87 0 -19 -42 c-19 -42 -20 -43 -69 -43 -39 0 -49 3 -47
15 2 8 42 113 90 233 l87 217 45 -2 44 -3 92 -225z m504 40 l0 -190 115 0 115
0 0 -45 0 -45 -167 2 -168 3 -3 233 -2 232 55 0 55 0 0 -190z m450 -46 l0
-235 -52 3 -53 3 -3 233 -3 232 56 0 55 0 0 -236z m-728 -301 c18 -16 25 -43
11 -43 -3 0 -14 7 -23 15 -15 14 -18 14 -30 0 -13 -15 -40 -21 -40 -8 0 11 42
53 53 53 6 0 19 -7 29 -17z m-852 -78 c26 -23 26 -76 1 -99 -11 -10 -38 -20
-60 -23 -40 -5 -41 -7 -41 -44 0 -32 -3 -39 -20 -39 -19 0 -20 7 -20 108 0 60
3 112 8 116 13 14 111 0 132 -19z m171 -85 c21 -58 39 -108 39 -112 0 -17 -39
-6 -45 12 -5 16 -15 20 -50 20 -34 0 -44 -4 -48 -20 -3 -12 -14 -20 -27 -20
-14 0 -20 5 -17 13 2 6 21 58 42 115 27 71 43 102 53 100 7 -2 31 -50 53 -108z
m186 99 c35 -13 43 -25 43 -66 0 -22 -7 -37 -19 -45 -19 -12 -19 -13 5 -60
l24 -48 -23 0 c-17 0 -28 11 -45 45 -15 31 -28 45 -42 45 -17 0 -20 -7 -20
-45 0 -38 -3 -45 -20 -45 -19 0 -20 7 -20 108 0 60 3 112 7 115 10 11 79 8
110 -4z m131 -107 c3 -107 2 -112 -18 -112 -19 0 -20 6 -20 108 0 60 3 112 7
116 20 20 28 -9 31 -112z m167 106 c39 -17 24 -33 -31 -33 -43 0 -49 -3 -52
-22 -3 -17 3 -24 25 -28 39 -8 74 -27 86 -46 17 -28 -1 -68 -38 -86 -29 -14
-40 -15 -75 -4 -30 9 -40 17 -38 29 3 9 11 15 19 13 44 -13 76 -12 88 3 20 24
7 43 -36 51 -21 3 -46 14 -55 22 -27 24 -23 68 8 92 30 24 61 26 99 9z m185
-103 c0 -96 -3 -115 -15 -115 -12 0 -15 19 -15 115 0 96 3 115 15 115 12 0 15
-19 15 -115z m98 12 l3 -97 54 0 c42 0 55 -3 55 -15 0 -12 -15 -15 -75 -15
l-75 0 0 116 c0 105 2 115 18 112 14 -3 17 -17 20 -101z m290 81 c3 -15 -5
-18 -52 -18 -56 0 -56 0 -56 -30 0 -29 2 -30 45 -30 38 0 45 -3 45 -20 0 -17
-7 -20 -45 -20 -43 0 -45 -1 -45 -30 0 -30 1 -30 55 -30 42 0 55 -3 55 -15 0
-12 -15 -15 -75 -15 l-75 0 0 108 c0 60 3 112 7 116 4 4 37 6 72 4 53 -2 66
-6 69 -20z m288 12 c42 -16 53 -39 54 -106 0 -89 -22 -114 -101 -114 l-59 0 0
115 0 115 39 0 c22 0 52 -5 67 -10z m252 -12 c3 -15 -5 -18 -51 -18 -53 0 -55
-1 -59 -30 -5 -30 -4 -30 44 -30 41 0 48 -3 48 -20 0 -17 -7 -20 -45 -20 -43
0 -45 -1 -45 -30 0 -30 0 -30 56 -30 47 0 55 -3 52 -17 -2 -9 -6 -16 -10 -15
-5 1 -37 2 -73 2 l-65 0 0 115 0 116 72 -3 c60 -2 73 -6 76 -20z m322 2 c0
-18 -7 -20 -55 -20 -54 0 -55 0 -55 -29 0 -28 2 -30 48 -33 34 -2 47 -7 47
-18 0 -11 -13 -16 -47 -18 l-48 -3 0 -45 c0 -37 -3 -44 -20 -44 -19 0 -20 7
-20 108 0 60 3 112 7 115 3 4 37 7 75 7 61 0 68 -2 68 -20z m181 -9 c25 -30
24 -59 -2 -87 l-20 -22 21 -42 c17 -34 19 -44 9 -51 -18 -11 -32 3 -54 51 -26
58 -53 55 -57 -7 -2 -35 -7 -48 -18 -48 -12 0 -16 21 -18 119 l-3 118 62 -4
c49 -4 66 -9 80 -27z m190 -80 c21 -57 39 -110 39 -117 0 -24 -30 -15 -42 11
-9 21 -18 25 -55 25 -30 0 -43 -4 -43 -14 0 -19 -23 -36 -38 -27 -18 11 65
233 85 229 9 -2 32 -47 54 -107z m155 32 l49 -78 3 78 c2 68 5 78 20 75 15 -3
17 -18 17 -118 0 -142 -9 -146 -80 -41 l-50 73 -5 -73 c-3 -41 -8 -73 -12 -71
-5 1 -12 2 -18 2 -11 0 -14 212 -3 223 16 17 33 2 79 -70z m257 66 c21 -9 47
-46 47 -64 0 -14 -37 -2 -48 15 -16 26 -58 26 -72 1 -5 -11 -10 -38 -10 -61 0
-23 5 -50 10 -61 14 -25 56 -25 72 1 13 20 48 28 48 11 0 -6 -11 -22 -24 -37
-30 -36 -86 -39 -119 -6 -19 19 -22 33 -22 93 0 65 2 73 28 95 31 26 54 30 90
13z m235 -11 c3 -15 -5 -18 -52 -18 -56 0 -56 0 -56 -30 0 -29 2 -30 45 -30
38 0 45 -3 45 -20 0 -17 -7 -20 -45 -20 -43 0 -45 -1 -45 -30 0 -30 0 -30 56
-30 47 0 55 -3 52 -17 -4 -20 -59 -29 -115 -18 l-33 6 0 115 0 115 72 -3 c60
-2 73 -6 76 -20z m-1748 -123 c0 -11 -12 -15 -50 -15 -38 0 -50 4 -50 15 0 11
12 15 50 15 38 0 50 -4 50 -15z m540 0 c0 -11 -12 -15 -50 -15 -38 0 -50 4
-50 15 0 11 12 15 50 15 38 0 50 -4 50 -15z m-610 -360 c0 -24 -3 -25 -60 -25
l-60 0 0 -30 c0 -30 0 -30 56 -30 52 0 55 -1 52 -22 -3 -20 -10 -23 -55 -26
l-53 -3 0 -50 c0 -48 -1 -49 -30 -49 l-30 0 0 130 0 130 90 0 c89 0 90 0 90
-25z m290 0 c0 -24 -2 -25 -65 -25 l-65 0 0 -30 c0 -30 0 -30 56 -30 52 0 55
-1 52 -22 -3 -20 -10 -23 -55 -26 l-53 -3 0 -50 c0 -48 -1 -49 -30 -49 l-30 0
0 130 0 130 95 0 c95 0 95 0 95 -25z m280 0 c0 -24 -3 -25 -60 -25 l-60 0 0
-30 c0 -30 0 -30 56 -30 52 0 55 -1 52 -22 -3 -20 -10 -23 -55 -26 l-53 -3 0
-50 c0 -48 -1 -49 -30 -49 l-30 0 0 130 0 130 90 0 c89 0 90 0 90 -25z"/>
<path d="M2192 2320 c-5 -14 -19 -49 -31 -77 l-21 -53 60 0 c33 0 60 1 60 3 0
1 -13 36 -29 77 -27 70 -30 73 -39 50z"/>
<path d="M1610 1825 c0 -36 0 -36 38 -33 34 3 37 6 37 33 0 27 -3 30 -37 33
-38 3 -38 3 -38 -33z"/>
<path d="M1812 1791 c-16 -52 -16 -51 17 -51 l30 0 -16 45 c-8 25 -16 45 -17
45 -2 0 -8 -17 -14 -39z"/>
<path d="M1990 1825 c0 -32 2 -35 29 -35 40 0 64 25 51 51 -8 13 -21 19 -45
19 -33 0 -35 -2 -35 -35z"/>
<path d="M3151 1780 l2 -80 31 0 c45 0 56 16 56 80 0 65 -11 80 -57 80 l-34 0
2 -80z"/>
<path d="M3880 1826 c0 -31 3 -36 23 -36 32 0 60 23 56 46 -3 14 -14 20 -42
22 -36 3 -37 3 -37 -32z"/>
<path d="M4102 1793 c-16 -53 -16 -53 13 -53 28 0 32 18 12 64 l-13 29 -12
-40z"/>
</g>
</svg>
